<svg width="34" height="34" viewBox="0 0 34 34" fill="none" xmlns="http://www.w3.org/2000/svg">
<path d="M30.5051 8.47341C30.5267 8.84527 30.5267 9.21721 30.5267 9.58905C30.5267 20.9312 23.5154 34 10.7005 34C6.75255 34 3.08504 32.5921 0 30.1484C0.560935 30.228 1.10022 30.2547 1.68274 30.2547C4.94032 30.2547 7.9391 28.9001 10.3338 26.5891C7.27032 26.5094 4.70305 24.0391 3.81851 20.639C4.25002 20.7186 4.68146 20.7718 5.13454 20.7718C5.76016 20.7718 6.38585 20.6655 6.9683 20.4797C3.77541 19.6827 1.38066 16.2297 1.38066 12.0594V11.9531C2.30829 12.5907 3.38706 12.9891 4.53038 13.0421C2.65348 11.5015 1.42382 8.87184 1.42382 5.89681C1.42382 4.30309 1.76894 2.84216 2.37303 1.56715C5.80327 6.77339 10.9594 10.1733 16.7411 10.5453C16.6332 9.90776 16.5685 9.24378 16.5685 8.5797C16.5685 3.85153 19.6751 0 23.5368 0C25.5432 0 27.3554 1.03593 28.6282 2.70937C30.2031 2.33752 31.7132 1.62029 33.0507 0.637505C32.5329 2.62974 31.4327 4.30317 29.9873 5.3656C31.3897 5.17976 32.7488 4.70153 34 4.03752C33.0509 5.73747 31.8643 7.25147 30.5051 8.47341Z" fill="black"/>
</svg>
