<svg width="40" height="34" viewBox="0 0 40 34" fill="none" xmlns="http://www.w3.org/2000/svg">
<path d="M39.1642 5.31985C38.7042 3.22583 37.3487 1.57666 35.6278 1.01699C32.5084 0 20 0 20 0C20 0 7.49171 0 4.37225 1.01699C2.65129 1.57675 1.29587 3.22583 0.835838 5.31985C0 9.11536 0 17.0344 0 17.0344C0 17.0344 0 24.9535 0.835838 28.7489C1.29587 30.8429 2.65129 32.4233 4.37225 32.983C7.49171 34 20 34 20 34C20 34 32.5084 34 35.6278 32.983C37.3487 32.4233 38.7042 30.8429 39.1642 28.7489C40 24.9535 40 17.0344 40 17.0344C40 17.0344 40 9.11536 39.1642 5.31985ZM15.9091 24.2241V9.84451L26.3636 17.0345L15.9091 24.2241Z" fill="black"/>
</svg>
